<?xml version="1.0" encoding="utf-8"?>
<!-- Generator: Adobe Illustrator 21.1.0, SVG Export Plug-In . SVG Version: 6.00 Build 0)  -->
<svg version="1.1" id="Layer_1" xmlns="http://www.w3.org/2000/svg" xmlns:xlink="http://www.w3.org/1999/xlink" x="0px" y="0px"
	 viewBox="0 0 151.2 45.4" style="enable-background:new 0 0 151.2 45.4;" xml:space="preserve">
<g>
	<g>
		<g>
			<path d="M52,14.3H41.8c-0.3,0-0.3,0.1-0.3,0.3v13.6c0,0.2,0.1,0.3,0.3,0.3H52c6,0,8.4-1.8,8.4-7.2C60.4,16,58,14.3,52,14.3z"/>
		</g>
	</g>
	<g>
		<g>
			<path d="M0,0v45.4h151.2V0H0z M60.3,32.7H28c-0.3,0-0.4-0.2-0.4-0.4V10.5c0-0.3,0.1-0.4,0.4-0.4h32.4c9.5,0,14.3,3.1,14.3,11.3
				C74.6,29.6,69.8,32.7,60.3,32.7z M126,32.7h-16.2c-0.4,0-0.6-0.1-0.9-0.3l-6.5-5.4c-0.3-0.2-0.4-0.2-0.8-0.2H94
				c-0.3,0-0.3,0.1-0.3,0.3v5.2c0,0.3-0.1,0.4-0.4,0.4h-13c-0.3,0-0.4-0.2-0.4-0.4V10.5c0-0.3,0.1-0.4,0.4-0.4h35.5
				c5.8,0,9,2.6,9,7.5c0,4.9-3.7,7.1-8.4,7.1c-0.2,0-0.3,0.1-0.3,0.2c0,0.1,0.1,0.2,0.4,0.4l9.4,6.6c0.2,0.2,0.6,0.4,0.6,0.7
				C126.3,32.7,126.2,32.7,126,32.7z"/>
		</g>
	</g>
	<g>
		<g>
			<path d="M105.3,14.3c0,0-10.9,0-11.3,0c-0.3,0-0.3,0.1-0.3,0.3v7.8c0,0.3,0.1,0.3,0.3,0.3c3,0,11.3,0,11.3,0
				c3.8,0,5.4-1.2,5.4-4.3C110.7,15.3,109.1,14.3,105.3,14.3z"/>
		</g>
	</g>
</g>
</svg>
