<?xml version="1.0" encoding="utf-8"?>
<!-- Generator: Adobe Illustrator 21.1.0, SVG Export Plug-In . SVG Version: 6.00 Build 0)  -->
<svg version="1.1" id="Layer_1" xmlns="http://www.w3.org/2000/svg" xmlns:xlink="http://www.w3.org/1999/xlink" x="0px" y="0px"
	 viewBox="0 0 862.2 874.2" style="enable-background:new 0 0 862.2 874.2;" xml:space="preserve">
<style type="text/css">
	.st0{display:none;fill:none;}
	.st1{fill:#231F20;}
	.st2{fill:#ED1C24;}
</style>
<path id="path14" class="st0" d="M95.9,35.7h670.4c34.2,1.1,61.4,28.3,60.5,62.8v679.4c0.9,33.9-26.4,61.2-60.5,60.5H95.9
	c-32.7,0.6-59.9-26.6-60.5-60.5V98.5C36,64.1,63.2,36.8,95.9,35.7L95.9,35.7"/>
<path class="st1" d="M767.5,846c-0.4,0-0.9,0-1.3,0H96c-17.3,0.3-33.9-6.3-46.7-18.6c-13.4-12.9-21-30.5-21.4-49.3l0-0.1l0-679.5
	c0.7-38.1,30.4-68.9,67.8-70.1l0.2,0h670.5l0.1,0c18.6,0.6,35.8,8.1,48.5,21.1c12.9,13.2,19.7,30.7,19.3,49.2v679.2
	c0.5,18.4-6.3,35.6-19.2,48.5C802.6,839,785.7,846,767.5,846z M95.8,831l670.6,0c14.5,0.3,28.1-5.1,38.1-15.2
	c9.9-10,15.2-23.3,14.8-37.6l0-0.2V98.4l0-0.1c0.8-29.9-22.6-54.1-53.2-55.1H96c-29.3,1-52.6,25.3-53.2,55.4v679.2
	c0.3,14.8,6.2,28.6,16.8,38.7C69.5,826.1,82.4,831.2,95.8,831L95.8,831z"/>
<path id="path18" class="st1" d="M89,690.5c0-8.4,5.4-13.1,12.6-13.1c3.2,0,8.4,2.5,10.6,5.6l53.3,71.1h0.3v-63.6
	c0-8.4,5.4-13.1,12.6-13.1c7.2,0,12.6,4.7,12.6,13.1V786c0,8.4-5.4,13.1-12.6,13.1c-3.2,0-8.2-2.5-10.6-5.5l-53.3-70.3h-0.3V786
	c0,8.4-5.4,13.1-12.6,13.1c-7.2,0-12.6-4.7-12.6-13.1V690.5"/>
<path id="path20" class="st1" d="M257.5,776.9c-21.4,0-31.6-18.2-31.6-38.7c0-20.3,10.6-38.7,31.6-38.7s31.6,18.3,31.6,38.7
	C289.1,758.7,278.9,776.9,257.5,776.9z M257.5,800.1c34.5,0,57.8-27.1,57.8-61.9c0-34.1-24-61.9-57.8-61.9
	c-34.3,0-57.8,26.9-57.8,61.9C199.6,773,223.4,800.1,257.5,800.1"/>
<path id="path22" class="st1" d="M311.6,695.7c-0.8-2.2-1.2-3.9-1.2-6.2c0-7.1,6.2-12.1,12.9-12.1c5.7,0,9.3,3.7,11.4,8.2l26.1,70
	l26.1-70c2.2-4.5,5.7-8.2,11.4-8.2c6.7,0,12.9,5,12.9,12.1c0,2.4-0.3,4-1.2,6.2l-36.8,93.7c-2.2,5.4-5,9.8-12.4,9.8
	c-7.4,0-10.3-4.4-12.4-9.8L311.6,695.7"/>
<path id="path24" class="st1" d="M445,702.6h0.3l15.6,48.8h-32L445,702.6z M393.4,781.8c-0.3,0.8-1.2,2.9-1.2,5.6
	c0,6.7,5.7,11.8,12.4,11.8c6.9,0,10.4-3.7,12.1-8.9l5-15.6h46.7l5,15.8c1.7,5,5.2,8.7,12.3,8.7c6.2,0,11.6-4.5,11.6-11.1
	c0-1.2-0.3-3.5-1.3-6.2l-33-91.5c-2.9-8.1-9.1-14-18-14c-8.6,0-15.1,6.2-18,14L393.4,781.8"/>
<path id="path26" class="st1" d="M577.8,693.2c0,6.6-4.4,12.4-11.3,12.4c-6.9,0-12.3-5-22.4-5c-7.2,0-13.8,3.9-13.8,10.9
	c0,17.3,56.2,6.2,56.2,49.6c0,24-19.8,39-43.1,39c-12.9,0-40.9-3-40.9-18.8c0-6.6,4.4-11.9,11.3-11.9c7.9,0,17.3,6.6,28.2,6.6
	c11.1,0,17.2-6.2,17.2-14.5c0-19.8-56.2-7.9-56.2-46.9c0-23.5,19.3-38.2,41.7-38.2C554.3,676.3,577.8,679.9,577.8,693.2"/>
<path id="path28" class="st1" d="M647.5,776.9c-21.4,0-31.6-18.2-31.6-38.7c0-20.3,10.6-38.7,31.6-38.7s31.6,18.3,31.6,38.7
	C679.1,758.7,668.8,776.9,647.5,776.9z M647.5,800.1c34.5,0,57.8-27.1,57.8-61.9c0-34.1-24-61.9-57.8-61.9
	c-34.3,0-57.8,26.9-57.8,61.9C589.6,773,613.3,800.1,647.5,800.1"/>
<path id="path30" class="st1" d="M715.6,690.5c0-8.4,5.4-13.1,12.6-13.1c7.2,0,12.6,4.7,12.6,13.1v84.4h29.9
	c8.6,0,12.3,6.4,12.1,12.1c-0.3,5.5-4.7,11.1-12.1,11.1h-42c-8.2,0-13.1-5.4-13.1-13.8V690.5"/>
<path id="path32" class="st2" d="M599.5,367.7c0.9-51.8,41.9-92.8,92.9-92.9c50.3,0,91.3,41,90.4,92.9c0.9,49.4-40.2,90.4-90.4,90.4
	C641.4,458.1,600.4,417.1,599.5,367.7L599.5,367.7"/>
<path id="path36" class="st2" d="M604,176.9c-0.9-49.1,39.1-89.1,88.2-88.2c49.7-0.9,89.7,39.1,90.6,88.2
	c-0.9,49.7-40.9,89.7-90.6,90.6C643.1,266.7,603.1,226.6,604,176.9L604,176.9"/>
<path id="path40" class="st2" d="M483.9,84.7c51.4-0.9,93.5,42,92.7,95.1v364.2c0.9,54-41.2,96.9-92.7,97.4
	c-52.4-0.5-94.5-43.4-95.2-97.4V179.8C389.5,126.8,431.6,83.8,483.9,84.7L483.9,84.7"/>
<path id="path44" class="st2" d="M176.5,85.1c52.1-0.1,94.1,42.1,95,93.5v360.2c-0.9,51.6-42.9,93.8-95,93.5
	C125,632.5,83,590.3,84,538.7V178.5C83,127.2,125,85,176.5,85.1L176.5,85.1"/>
<path id="path48" class="st2" d="M412,603L98.1,201.7l141.3-91.9l273.6,338.6L412,603L412,603"/>
</svg>
