<svg id="Layer_1" data-name="Layer 1" xmlns="http://www.w3.org/2000/svg" viewBox="0 0 364.9 69.5"><defs><style>.cls-1{fill:#1d1d1b;}</style></defs><title>Artboard 1</title><path class="cls-1" d="M2.4,54.5a58.24,58.24,0,0,0,17,3.3c5,0,5.9-1.7,5.8-2.9v-.7c-.4-4.9-23-1.4-24.1-17-.1-1-.1-2-.1-3,.2-8,6.8-14.1,21.3-14.1a56,56,0,0,1,18.6,2.8l-2,12.2a51.94,51.94,0,0,0-16-3.3c-4.4,0-5.4,1.4-5.4,2.4v.6c.6,6,22.5,1.3,24.2,16.6a20.45,20.45,0,0,1,0,3.5c0,8.5-7.7,14.6-21.6,14.7A71.84,71.84,0,0,1,0,66.7Z"/><path class="cls-1" d="M76.2,21H89.7l-.9,47.5H75.4l-1.7-5.1a16.49,16.49,0,0,1-13,6.1c-9.9,0-13.9-6.3-14.4-12.5,0-.7-.1-1.1.3-22.6.1-6.7,4-14.3,15-14.4,2.6,0,8.7.6,12.7,5.9ZM73.1,50.6c.3-12.2.2-12.6.2-13-.3-3.3-2.1-5.4-5.7-5.4a4.59,4.59,0,0,0-4.9,4.3v.6c-.3,15.3-.2,15.8-.2,16.1a4.16,4.16,0,0,0,4.3,4.1h.4c4,0,5.7-2.6,5.9-6.7Z"/><path class="cls-1" d="M109.9,21l1.6,5c4.3-5.3,10.6-6,13.2-6,6.9,0,11,3.1,12.9,7.1,4.2-6.4,11.5-7.1,13.9-7.1,10,0,13.9,6.4,14.4,12.5.1,1.4.2,1.9-.6,35.9H149.1c.7-30.8.7-31.3.6-32a4.46,4.46,0,0,0-4.6-4.3h-.3c-4.1,0-5.8,2.7-5.9,6.6l-.5,29.7H122.3c.6-30.8.6-31.3.5-32a4.35,4.35,0,0,0-4.4-4.3h-.3c-4.1,0-5.8,2.7-5.9,6.6l-.5,29.6-16.2.1L96.4,21Z"/><path class="cls-1" d="M214.7,21,198.1,69H182.4L168,21h16.1L191,50.9,199,21Z"/><path class="cls-1" d="M235.7,1.1l-.3,14H219.2l.3-14ZM235.4,21l-.9,47.5H218.4l.8-47.5Z"/><path class="cls-1" d="M269.5,35.6c-8.5,0-12.1,1.8-12.2,5.8l-.4,27H240.8l.8-47.5H255l1.5,8.6c2.6-8.1,10.7-9.6,13.2-9.6Z"/><path class="cls-1" d="M306.8,43.3l18.3,25.1H305.7L291.1,47.8l-.4,20.6H274.6L275.7,0h16.2l-.7,40.7,15.4-19.8H325Z"/><path class="cls-1" d="M339.7,49.7c0,1.5.1,1.9.1,2.6.3,3.7,3,4.9,7.9,4.9a48.94,48.94,0,0,0,15.6-2.9l1.6,12.1a69,69,0,0,1-20.2,2.9c-12.6,0-20.1-5.4-21-15.8-.2-2.8-.1-4.7.1-15.8.3-11.4,8-17.9,21.8-17.9,11.8,0,18.4,4.9,19.2,14.6.9,10.5-5.1,15.1-17.5,15.1h-7.6Zm5.5-10.4c4.8,0,5.4-2.3,5.3-3.8-.2-1.9-1.5-3.9-5.1-3.9a5,5,0,0,0-5.4,5.3l-.1,2.4Z"/></svg>